package com.example.rhythm.ui.homePage.generation;

import android.content.DialogInterface;
import android.media.MediaPlayer;
import android.os.Bundle;

import androidx.annotation.NonNull;
import androidx.annotation.Nullable;
import androidx.appcompat.app.AlertDialog;
import androidx.fragment.app.Fragment;

import android.os.Handler;
import android.util.Log;
import android.view.LayoutInflater;
import android.view.View;
import android.view.ViewGroup;
import android.widget.EditText;
import android.widget.SeekBar;

import com.example.rhythm.R;
import com.example.rhythm.data.model.generation.GeneratedMusicModel;
import com.example.rhythm.databinding.FragmentPlayGeneratedMusicBinding;
import com.google.android.gms.tasks.OnCompleteListener;
import com.google.android.gms.tasks.Task;
import com.google.android.material.dialog.MaterialAlertDialogBuilder;
import com.google.firebase.auth.FirebaseAuth;
import com.google.firebase.database.DatabaseReference;
import com.google.firebase.database.FirebaseDatabase;

import java.io.ByteArrayInputStream;
import java.io.File;
import java.io.FileOutputStream;
import java.io.IOException;


public class PlayGeneratedMusicFragment extends Fragment {

    FragmentPlayGeneratedMusicBinding binding;
    String midiDataString;
    MediaPlayer mediaPlayer;
    private Handler handler = new Handler();
    String savedSongName = "";
    private DatabaseReference databaseReference = FirebaseDatabase.getInstance().getReference();
    private String userId = FirebaseAuth.getInstance().getUid();

    public PlayGeneratedMusicFragment() {
        // Required empty public constructor
    }


    @Override
    public void onCreate(Bundle savedInstanceState) {
        super.onCreate(savedInstanceState);

    }

    @Override
    public View onCreateView(LayoutInflater inflater, ViewGroup container,
                             Bundle savedInstanceState) {
        // Inflate the layout for this fragment
        return inflater.inflate(R.layout.fragment_play_generated_music, container, false);
    }

    @Override
    public void onViewCreated(@NonNull View view, @Nullable Bundle savedInstanceState) {
        super.onViewCreated(view, savedInstanceState);

        binding = FragmentPlayGeneratedMusicBinding.bind(view);
        midiDataString = "4d546864000000060001000204004d54726b0000001400ff510307a12000ff5804040218088800ff2f004d54726b000019ea00ff030000e0004000903f5a0090415a0090465a840090415a0090465a8400803f0000804100008046000090245a8400804100008046000090265a84008024000090475a0090405a840080260000903c5a00903f5a84008047000080400000903b5a8400803c0000803f0000903b5a8400803b000090425a8400803b0000903d5a00903e5a84008042000090295a8400803d0000803e000090385a84008029000090465a84008038000090405a0090455a84008046000090415a8400804000008045000090405a840080410000904a5a840080400000904d5a8400804a0000904e5a8400804d000090435a0090475a8400804e000090475a00903e5a8400804300008047000090465a840080470000803e0000903e5a00903f5a0090435a840080460000902a5a8400803e0000803f000080430000903c5a0090405a0090435a8400802a000090465a00903e5a8400803c00008040000080430000903f5a840080460000803e0000904d5a8400803f000090225a8400804d000090345a84008022000090415a840080340000904e5a84008041000090305a8400804e000090405a0090435a0090475a84008030000090455a840080400000804300008047000090435a0090465a84008045000090475a00903f5a84008043000080460000903e5a0090405a840080470000803f0000903f5a8400803e00008040000090415a8400803f0000903e5a0090405a0090455a840080410000902c5a8400803e0000804000008045000090415a0090455a00903c5a8400802c000090415a0090455a00903c5a84008041000080450000803c000090295a84008041000080450000803c0000903c5a0090405a84008029000090455a8400803c00008040000090345a840080450000903e5a00903f5a84008034000090435a0090465a8400803e0000803f000090405a8400804300008046000090345a84008040000090415a840080340000904f5a840080410000903e5a0090405a8400804f0000903e5a8400803e000080400000903d5a8400803e0000903c5a00903f5a0090435a8400803d000090445a8400803c0000803f00008043000090445a84008044000090545a84008044000090215a84008054000090415a0090465a84008021000090455a00903c5a8400804100008046000090425a0090455a0090475a840080450000803c000090475a840080420000804500008047000090355a84008047000090525a84008035000090435a84008052000090415a0090455a840080430000903c5a8400804100008045000090435a8400803c000090475a84008043000090385a84008047000090415a0090455a84008038000090455a8400804100008045000090445a0090475a84008045000090385a84008044000080470000903b5a84008038000090415a8400803b000090565a84008041000090475a00903c5a840080560000903d5a00903e5a840080470000803c000090355a8400803d0000803e0000902a5a84008035000090405a0090455a8400802a0000903e5a0090405a0090455a8400804000008045000090425a0090455a8400803e0000804000008045000090435a0090465a8400804200008045000090475a8400804300008046000090365a84008047000090455a84008036000090405a84008045000090475a84008040000090425a0090475a840080470000903d5a0090425a8400804200008047000090415a8400803d000080420000903c5a840080410000903d5a8400803c0000903e5a00903f5a8400803d000090225a8400803e0000803f000090505a840080220000903c5a00903f5a0090435a84008050000090405a0090435a0090475a8400803c0000803f00008043000090535a840080400000804300008047000090425a0090455a0090475a840080530000903c5a00903f5a840080420000804500008047000090455a8400803c0000803f000090525a84008045000090475a84008052000090415a0090445a00903c5a84008047000090445a84008041000080440000803c000090425a840080440000902e5a84008042000090445a8400802e0000903e5a00903f5a0090435a84008044000090265a8400803e0000803f000080430000903c5a00903f5a0090435a840080260000902f5a8400803c0000803f00008043000090565a8400802f000090475a00903e5a840080560000903d5a00903e5a840080470000803e0000902f5a8400803d0000803e0000903e5a0090405a8400802f000090475a0090405a8400803e000080400000904a5a8400804700008040000090475a0090405a8400804a0000903c5a00903f5a0090435a8400804700008040000090595a8400803c0000803f000080430000903c5a0090405a0090435a84008059000090225a8400803c0000804000008043000090545a840080220000904f5a84008054000090425a0090455a8400804f000090415a0090455a00903c5a84008042000080450000903c5a0090405a0090435a84008041000080450000803c0000903b5a8400803c0000804000008043000090405a8400803b000090225a84008040000090415a0090445a00903c5a840080220000902f5a84008041000080440000803c0000903a5a8400802f000090315a8400803a000090405a0090435a0090475a840080310000903e5a8400804000008043000080470000902b5a8400803e000090455a8400802b000090385a84008045000090265a84008038000090365a84008026000090435a00903c5a84008036000090455a840080430000803c000090465a84008045000090505a84008046000090415a84008050000090555a840080410000903e5a84008055000090595a8400803e000090295a84008059000090465a84008029000090315a84008046000090365a840080310000904f5a84008036000090395a8400804f000090465a00903e5a840080390000903c5a840080460000803e000090415a0090455a00903c5a8400803c000090215a84008041000080450000803c000090475a00903e5a840080210000903c5a00903f5a0090435a840080470000803e000090535a8400803c0000803f000080430000903d5a840080530000904d5a8400803d0000904c5a8400804d0000902d5a8400804c000090425a8400802d000090225a840080420000903e5a0090415a84008022000090475a00903e5a8400803e00008041000090435a00903c5a840080470000803e0000903d5a840080430000803c0000903d5a00903e5a8400803d0000903c5a0090405a0090435a8400803d0000803e000090405a8400803c0000804000008043000090475a0090405a84008040000090405a0090435a0090475a8400804700008040000090415a0090455a00903c5a840080400000804300008047000090405a0090435a0090475a84008041000080450000803c000090385a8400804000008043000080470000905f5a84008038000090435a0090475a8400805f0000902a5a8400804300008047000090455a00903c5a8400802a000090335a840080450000803c000090405a840080330000903d5a84008040000090455a00903c5a0090405a8400803d0000903e5a0090415a840080450000803c000080400000902d5a8400803e000080410000903e5a0090405a0090455a8400802d0000903c5a00903f5a0090435a8400803e0000804000008045000090355a8400803c0000803f00008043000090455a00903d5a0090405a840080350000903c5a840080450000803d000080400000902d5a8400803c000090465a00903e5a8400802d000090415a840080460000803e000090405a0090435a0090475a84008041000090435a0090475a840080400000804300008047000090435a0090475a84008043000080470000903e5a00903f5a0090435a84008043000080470000903e5a0090405a0090455a8400803e0000803f00008043000090415a0090455a00903c5a8400803e0000804000008045000090455a00903c5a84008041000080450000803c000090405a0090435a840080450000803c000090295a8400804000008043000090545a84008029000090425a0090455a84008054000090475a00903e5a84008042000080450000903c5a0090405a840080470000803e0000903b5a8400803c00008040000090415a0090445a00903c5a8400803b000090415a84008041000080440000803c000090485a84008041000090435a84008048000090325a84008043000090585a840080320000903b5a84008058000090425a8400803b0000903e5a0090425a84008042000090325a8400803e00008042000090415a0090465a840080320000903c5a8400804100008046000090475a8400803c0000903d5a00903e5a840080470000902f5a8400803d0000803e0000903d5a8400802f000090245a8400803d000090475a84008024000090525a84008047000090535a84008052000090265a840080530000903a5a84008026000090395a8400803a000090355a84008039000090555a84008035000090425a0090455a0090475a84008055000090405a0090435a840080420000804500008047000090495a84008040000080430000903e5a840080490000903d5a8400803e0000903c5a00903f5a0090425a8400803d000090345a8400803c0000803f000080420000903e5a0090425a840080340000903e5a0090405a8400803e00008042000090455a8400803e00008040000090265a840080450000902e5a840080260000903d5a0090405a8400802e000090465a00903e5a8400803d000080400000903e5a0090405a0090455a840080460000803e000090285a8400803e00008040000080450000903d5a84008028000090405a8400803d000090455a00903d5a0090405a840080400000903e5a0090405a840080450000803d00008040000090465a8400803e000080400000904c5a840080460000904e5a8400804c000090335a8400804e0000903c5a00903f5a0090425a840080330000903f5a8400803c0000803f00008042000090225a8400803f0000903c5a0090405a84008022000090475a0090405a8400803c00008040000090455a8400804700008040000090455a840080450000903d5a840080450000903c5a00903f5a0090435a8400803d000090415a0090465a8400803c0000803f00008043000090415a0090465a84008041000080460000903e5a0090425a84008041000080460000903c5a0090405a0090435a8400803e00008042000090425a0090455a0090475a8400803c00008040000080430000903d5a0090425a840080420000804500008047000090435a0090475a8400803d00008042000090425a8400804300008047000090415a0090465a840080420000903a5a8400804100008046000090455a00903d5a8400803a000090465a00903e5a840080450000803d0000903c5a00903f5a840080460000803e000090455a00903c5a0090405a8400803c0000803f000090595a840080450000803c000080400000903d5a0090405a84008059000090455a8400803d00008040000090445a840080450000903e5a0090425a84008044000090215a8400803e00008042000090415a0090465a84008021000090585a8400804100008046000090425a840080580000902e5a84008042000090545a8400802e000090585a84008054000090295a84008058000090325a840080290000902a5a84008032000090475a00903e5a8400802a000090555a840080470000803e0000903e5a00903f5a0090435a840080550000903e5a0090405a0090455a8400803e0000803f00008043000090505a8400803e0000804000008045000090545a84008050000090415a0090455a840080540000903c5a0090405a0090435a8400804100008045000090455a8400803c00008040000080430000903c5a00903f5a0090425a84008045000090485a8400803c0000803f000080420000902e5a840080480000903e5a00903f5a0090435a8400802e0000903c5a8400803e0000803f00008043000090475a00903c5a8400803c000090455a00903c5a0090405a840080470000803c000090465a840080450000803c00008040000090285a84008046000090545a840080280000903e5a84008054000090245a8400803e0000905f5a84008024000090425a0090455a0090475a8400805f0000903e5a00903f5a0090435a840080420000804500008047000090435a8400803e0000803f00008043000090425a0090455a84008043000090375a84008042000080450000903d5a00903e5a840080370000903c5a8400803d0000803e000090525a8400803c0000904e5a84008052000090415a0090455a00903c5a8400804e0000903e5a84008041000080450000803c000090435a8400803e000090415a840080430000903d5a84008041000090415a0090455a00903c5a8400803d000090335a84008041000080450000803c0000903c5a84008033000090565a8400803c000090535a840080560000903c5a00903f5a840080530000903c5a8400803c0000803f0000903e5a0090425a8400803c0000903c5a0090415a8400803e00008042000090455a8400803c00008041000090415a84008045000090325a84008041000090425a0090455a84008032000090435a8400804200008045000090455a840080430000902c5a84008045000090455a8400802c000090435a840080450000903a5a840080430000902a5a8400803a0000903c5a00903f5a8400802a000090475a00903e5a8400803c0000803f000090385a840080470000803e0000902b5a840080380000903f5a8400802b000090285a8400803f000090415a0090455a00903c5a840080280000903d5a84008041000080450000803c000090455a00903c5a8400803d000090295a840080450000803c0000902e5a84008029000090515a8400802e0000903c5a0090405a0090435a84008051000090475a8400803c0000804000008043000090595a84008047000090435a0090475a84008059000090395a84008043000080470000902a5a84008039000090525a8400802a000090555a840080520000903c5a0090405a0090435a84008055000090475a8400803c00008040000080430000903d5a0090425a84008047000090455a00903c5a0090405a8400803d00008042000090445a0090475a840080450000803c000080400000903c5a00903f5a0090435a8400804400008047000090455a8400803c0000803f00008043000090405a0090455a840080450000903a5a84008040000080450000903c5a0090415a8400803a000090455a00903c5a8400803c00008041000090475a840080450000803c0000904a5a84008047000090445a0090475a8400804a0000903c5a84008044000080470000904c5a8400803c000090585a8400804c000090225a84008058000090365a84008022000090375a84008036000090455a00903c5a840080370000904d5a840080450000803c000090405a8400804d000090395a84008040000090435a0090475a84008039000090305a84008043000080470000903c5a0090415a840080300000903e5a8400803c00008041000090455a00903c5a0090405a8400803e0000903c5a00903f5a0090425a840080450000803c000080400000904c5a8400803c0000803f000080420000903d5a0090405a8400804c000090265a8400803d00008040000090445a0090475a84008026000090535a8400804400008047000090495a84008053000090555a84008049000090425a0090475a84008055000090445a84008042000080470000903d5a0090405a840080440000904a5a8400803d00008040000090405a8400804a0000904e5a84008040000090515a8400804e000090265a840080510000904d5a84008026000090295a8400804d000090405a0090455a840080290000903f5a0090415a0090465a8400804000008045000090455a00903d5a0090405a8400803f00008041000080460000902d5a840080450000803d000080400000903d5a8400802d0000903b5a8400803d0000904f5a8400803b000090475a00903e5a8400804f0000903c5a00903f5a0090435a840080470000803e000090415a0090455a8400803c0000803f000080430000903f5a84008041000080450000904f5a8400803f000090455a00903c5a0090405a8400804f000090565a840080450000803c000080400000904e5a840080560000903f5a0090415a0090465a8400804e0000905f5a8400803f0000804100008046000090475a8400805f0000903c5a00903f5a0090425a840080470000903f5a8400803c0000803f000080420000903e5a8400803f0000902e5a8400803e000090435a8400802e0000903e5a840080430000903d5a8400803e000090415a8400803d000090435a00903c5a840080410000903c5a0090405a840080430000803c000090595a8400803c00008040000090565a84008059000090425a84008056000090405a84008042000090355a840080400000903e5a00903f5a84008035000090355a8400803e0000803f000090455a840080350000903c5a840080450000903c5a8400803c000090285a8400803c000090455a00903c5a0090405a840080280000903e5a0090435a840080450000803c00008040000090425a0090455a8400803e00008043000090555a84008042000080450000903e5a0090425a840080550000903e5a8400803e00008042000090565a8400803e000090435a84008056000090475a00903c5a84008043000090455a00903d5a0090405a840080470000803c0000903e5a0090435a840080450000803d00008040000090245a8400803e00008043000090445a840080240000903c5a84008044000090505a8400803c000090425a0090455a0090475a84008050000090355a840080420000804500008047000090565a840080350000904d5a840080560000903f5a8400804d000090375a8400803f000090475a00903c5a840080370000902d5a840080470000803c000090455a00903d5a8400802d000090445a840080450000803d0000903e5a0090405a0090455a84008044000090455a00903c5a0090405a8400803e0000804000008045000090485a840080450000803c00008040000090445a0090475a840080480000904e5a8400804400008047008400804e008800ff2f00";
        byte[] midiData = hexStringToByteArray(midiDataString);
// Convert the MIDI data to a MIDI file
        ByteArrayInputStream inputStream = new ByteArrayInputStream(midiData);
        try {
            File midiFile = new File(getContext().getCacheDir(), "temp.mid");
            FileOutputStream outputStream = new FileOutputStream(midiFile);
            byte[] buffer = new byte[1024];
            int length;
            while ((length = inputStream.read(buffer)) > 0) {
                outputStream.write(buffer, 0, length);
            }
            outputStream.close();
        } catch (IOException e) {
            e.printStackTrace();
            Log.d("ssssssssssssssssss", "onViewCreated:  byte array input  midifile   " + e.getLocalizedMessage());
        }


        mediaPlayer = new MediaPlayer();

        File midiFile = new File(getContext().getCacheDir(), "temp.mid");
        try {
            mediaPlayer.setDataSource(midiFile.getAbsolutePath());
            mediaPlayer.prepare();

        } catch (IOException e) {
            e.printStackTrace();
            Log.d("ssssssssssssssssss", "onViewCreated: file midifile   " + e.getLocalizedMessage());

        }

        getActivity().runOnUiThread(new Runnable() {
            @Override
            public void run() {
                if (mediaPlayer != null) {
                    int currentPosition = mediaPlayer.getCurrentPosition() / 1000;
                    binding.seekBar.setProgress(currentPosition);
                    binding.durationPlayed.setText(formattedTime(currentPosition));

                }
                handler.postDelayed(this, 1); //oneSecond
            }
        });

        binding.seekBar.setOnSeekBarChangeListener(new SeekBar.OnSeekBarChangeListener() {
            @Override
            public void onProgressChanged(SeekBar seekBar, int progress, boolean fromUser) {
                mediaPlayer.seekTo(progress * 1000);
            }

            @Override
            public void onStartTrackingTouch(SeekBar seekBar) {

            }

            @Override
            public void onStopTrackingTouch(SeekBar seekBar) {

            }
        });





        binding.playPauseBtn.setOnClickListener(new View.OnClickListener() {
            @Override
            public void onClick(View v) {

                if (mediaPlayer.isPlaying()) {
                    binding.playPauseBtn.setImageResource(R.drawable.play_arrow);
                    mediaPlayer.pause();

                } else {
                    binding.playPauseBtn.setImageResource(R.drawable.ic_pause);
                    mediaPlayer.start();

                }


            }
        });


        binding.saveBtn.setOnClickListener(new View.OnClickListener() {
            @Override
            public void onClick(View v) {
                 View view1 = LayoutInflater.from(getContext()).inflate(R.layout.dialog_layout,null);
                EditText savedTxt = view1.findViewById(R.id.savedtxt);

                AlertDialog alertDialog = new MaterialAlertDialogBuilder(getContext())
                        .setTitle("Name The generated Song")
                        .setView(view1)
                        .setPositiveButton("save", new DialogInterface.OnClickListener() {
                            @Override
                            public void onClick(DialogInterface dialog, int which) {

                                savedSongName = savedTxt.getText().toString();
                                savedTheGenerated(savedSongName);
                                Log.d("ssssssssssssssssss", "onClick: "  +savedSongName);
                                dialog.dismiss();

                            }
                        }).setNegativeButton("close", new DialogInterface.OnClickListener() {
                            @Override
                            public void onClick(DialogInterface dialog, int which) {
                                dialog.dismiss();
                            }
                        }).create();
                alertDialog.show();
            }
        });

    }


    public static byte[] hexStringToByteArray(String hexString) {
        int length = hexString.length();
        byte[] byteArray = new byte[length / 2];
        for (int i = 0; i < length; i += 2) {
            byteArray[i / 2] = (byte) ((Character.digit(hexString.charAt(i), 16) << 4)
                    + Character.digit(hexString.charAt(i + 1), 16));
        }
        return byteArray;
    }

    private String formattedTime(int currentPosition) {

        String totalout = "";
        String totalNew = "";
        String seconds = String.valueOf(currentPosition % 60);
        String minutes = String.valueOf(currentPosition / 60);
        totalout = minutes + ":" + seconds;
        totalNew = minutes + ":" + "0" + seconds;
        if (seconds.length() == 1) {
            return totalNew;
        } else {
            return totalout;
        }
    }

    private void savedTheGenerated(String theName){

        GeneratedMusicModel generatedMusicModel = new GeneratedMusicModel(theName,midiDataString);
        databaseReference.child("generated saved").child(userId).child(theName)
                .setValue(generatedMusicModel).addOnCompleteListener(new OnCompleteListener<Void>() {
                    @Override
                    public void onComplete(@NonNull Task<Void> task) {
                        if (task.isSuccessful())
                            Log.d("sssssssssssssss", "onComplete: save generation   success "   );
                        else
                            Log.d("sssssssssssssss", "fail: save generation   fail "   );

                    }
                });
    }

}